<?xml version="1.0" standalone="no"?><!DOCTYPE svg PUBLIC "-//W3C//DTD SVG 1.1//EN" "http://www.w3.org/Graphics/SVG/1.1/DTD/svg11.dtd"><svg t="1533290717213" class="icon" style="" viewBox="0 0 1024 1024" version="1.1" xmlns="http://www.w3.org/2000/svg" p-id="23412" xmlns:xlink="http://www.w3.org/1999/xlink" width="32" height="32"><defs><style type="text/css"></style></defs><path d="M828.976 894.125H190.189c-70.55 0-127.754-57.185-127.754-127.753V606.674c0-17.634 14.31-31.933 31.933-31.933h63.889c17.634 0 31.932 14.299 31.932 31.933v95.822c0 35.282 28.596 63.877 63.877 63.877h511.033c35.281 0 63.877-28.595 63.877-63.877v-95.822c0-17.634 14.298-31.933 31.943-31.933h63.878c17.635 0 31.933 14.299 31.933 31.933v159.7c0 70.566-57.191 127.751-127.754 127.751zM249.939 267.51c12.921-12.92 33.885-12.92 46.807 0l148.97 148.972V94.893c0-17.634 14.302-31.947 31.934-31.947h63.876c17.638 0 31.946 14.313 31.946 31.947v321.589l148.97-148.972c12.922-12.92 33.876-12.92 46.797 0l46.814 46.818c12.922 12.922 12.922 33.874 0 46.807L552.261 624.93c-1.14 1.138-21.664 13.684-42.315 13.693-20.877 0.01-41.88-12.542-43.021-13.693L203.122 361.135c-12.923-12.934-12.923-33.885 0-46.807l46.817-46.818z" fill="#3c8052" p-id="23413" data-spm-anchor-id="a313x.7781069.0.i31" class="selected"></path></svg>