<?xml version="1.0" standalone="no"?><!DOCTYPE svg PUBLIC "-//W3C//DTD SVG 1.1//EN" "http://www.w3.org/Graphics/SVG/1.1/DTD/svg11.dtd"><svg t="1533442670213" class="icon" style="" viewBox="0 0 1024 1024" version="1.1" xmlns="http://www.w3.org/2000/svg" p-id="21429" xmlns:xlink="http://www.w3.org/1999/xlink" width="32" height="32"><defs><style type="text/css"></style></defs><path d="M472.983381 729.254046c9.230222 9.230222 24.195052 9.230222 33.425274 0l289.583374-289.583374c9.230222-9.230222 9.230222-24.195052 0-33.425274-9.214872-9.214872-24.178679-9.214872-33.409924 0L513.324158 655.503345 513.324158 81.656765c0-13.042037-10.585079-23.62814-23.62814-23.62814-13.043061 0-23.62814 10.585079-23.62814 23.62814l0 573.84658L216.809931 406.245398c-9.230222-9.214872-24.195052-9.214872-33.409924 0-9.230222 9.230222-9.230222 24.195052 0 33.425274L472.983381 729.254046z" p-id="21430" fill="#fffafa"></path><path d="M144.851039 887.346667c-18.122753 0-32.803103-14.947434-32.803103-33.400714L112.047935 714.449875c0 0 0-5.092995 0-7.858992 0-13.014408-10.562567-23.576975-23.576975-23.576975-13.014408 0-23.576975 10.562567-23.576975 23.576975 0 2.765997 0 7.858992 0 7.858992l0 157.178809c0 34.720779 28.15013 62.87091 62.87091 62.87091l448.680882 0c-9.650801-14.680351-17.603937-30.492478-23.938202-47.152926L144.851039 887.346667z" p-id="21431" fill="#fffafa"></path><path d="M787.915074 620.142999c-95.485725 0-172.895769 77.410044-172.895769 172.895769 0 95.485725 77.410044 172.895769 172.895769 172.895769s172.895769-77.410044 172.895769-172.895769C960.810842 697.553043 883.400798 620.142999 787.915074 620.142999zM850.785983 777.321808l0 31.435966-31.435966 0-15.717983 0 0 15.717983 47.152926 0 0 31.435966-47.152926 0 0 31.435966-31.435966 0 0-31.435966-47.15395 0 0-31.435966 47.15395 0 0-15.717983-47.15395 0 0-31.435966 31.435966 0-31.435966-78.588893 31.435966 0 31.435966 62.87091 31.435966-62.87091 31.435966 0-31.435966 78.588893L850.785983 777.321808z" p-id="21432" fill="#fffafa"></path></svg>