<?xml version="1.0" standalone="no"?><!DOCTYPE svg PUBLIC "-//W3C//DTD SVG 1.1//EN" "http://www.w3.org/Graphics/SVG/1.1/DTD/svg11.dtd"><svg t="1533250461026" class="icon" style="" viewBox="0 0 1024 1024" version="1.1" xmlns="http://www.w3.org/2000/svg" p-id="4299" xmlns:xlink="http://www.w3.org/1999/xlink" width="16" height="16"><defs><style type="text/css"></style></defs><path d="M516.726154 688.443077c-113.427692 0-204.8-107.126154-204.8-237.883077v-204.8C311.926154 115.003077 403.298462 7.876923 516.726154 7.876923s204.8 107.126154 204.8 237.883077v206.375385c0 130.756923-91.372308 236.307692-204.8 236.307692z" p-id="4300"></path><path d="M516.726154 822.350769c-190.621538 0-346.584615-157.538462-346.584616-349.735384v-85.07077h47.261539V472.615385c0 166.990769 133.907692 302.473846 299.323077 302.473846s299.323077-135.483077 299.323077-302.473846v-85.07077h47.261538V472.615385c0 192.196923-154.387692 349.735385-346.584615 349.735384z" p-id="4301"></path><path d="M488.369231 806.596923h47.261538v182.744615h-47.261538z" p-id="4302"></path><path d="M269.390769 964.135385h500.972308v47.261538H269.390769z" p-id="4303"></path></svg>