<?xml version="1.0" standalone="no"?><!DOCTYPE svg PUBLIC "-//W3C//DTD SVG 1.1//EN" "http://www.w3.org/Graphics/SVG/1.1/DTD/svg11.dtd"><svg t="1533275345994" class="icon" style="" viewBox="0 0 1024 1024" version="1.1" xmlns="http://www.w3.org/2000/svg" p-id="16551" xmlns:xlink="http://www.w3.org/1999/xlink" width="32" height="32"><defs><style type="text/css"></style></defs><path d="M698.88 464.64 698.88 464.64 451.84 314.88c-7.68-6.4-16.64-10.24-26.88-10.24-20.48 0-37.12 15.36-40.96 34.56 0 0 0 1.28 0 1.28 0 1.28 0 3.84 0 3.84 0 1.28 0 1.28 0 2.56 0 2.56 0 6.4 1.28 8.96l0 293.12c0 1.28 0 3.84 0 6.4 0 2.56 0 3.84 0 6.4 0 23.04 19.2 42.24 42.24 42.24 8.96 0 17.92-3.84 25.6-8.96l248.32-151.04 0 0c15.36-6.4 26.88-21.76 26.88-39.68C724.48 486.4 714.24 471.04 698.88 464.64zM513.28 12.8C238.08 12.8 15.36 235.52 15.36 510.72c0 275.2 222.72 497.92 497.92 497.92C788.48 1008.64 1011.2 785.92 1011.2 510.72 1011.2 235.52 788.48 12.8 513.28 12.8zM513.28 926.72c-238.08 0-430.08-189.44-430.08-422.4 0-232.96 192-422.4 430.08-422.4 238.08 0 430.08 189.44 430.08 422.4C943.36 737.28 750.08 926.72 513.28 926.72z" p-id="16552"></path></svg>