<?xml version="1.0" standalone="no"?><!DOCTYPE svg PUBLIC "-//W3C//DTD SVG 1.1//EN" "http://www.w3.org/Graphics/SVG/1.1/DTD/svg11.dtd"><svg t="1533440402979" class="icon" style="" viewBox="0 0 1024 1024" version="1.1" xmlns="http://www.w3.org/2000/svg" p-id="16112" xmlns:xlink="http://www.w3.org/1999/xlink" width="32" height="32"><defs><style type="text/css"></style></defs><path d="M512 0c282.7776 0 512 229.2224 512 512s-229.2224 512-512 512S0 794.7776 0 512 229.2224 0 512 0z m0 102.4a409.6 409.6 0 1 0 409.6 409.6 409.6 409.6 0 0 0-409.6-409.6zM436.736 304.9472l261.7856 163.6352a51.2 51.2 0 0 1 0 86.8352L436.736 719.0528A51.2 51.2 0 0 1 358.4 675.6352V348.3648a51.2 51.2 0 0 1 78.336-43.4176z" p-id="16113" fill="#fffafa"></path></svg>