<?xml version="1.0" standalone="no"?><!DOCTYPE svg PUBLIC "-//W3C//DTD SVG 1.1//EN" "http://www.w3.org/Graphics/SVG/1.1/DTD/svg11.dtd"><svg t="1533280675709" class="icon" style="" viewBox="0 0 1024 1024" version="1.1" xmlns="http://www.w3.org/2000/svg" p-id="18034" xmlns:xlink="http://www.w3.org/1999/xlink" width="32" height="32"><defs><style type="text/css"></style></defs><path d="M953.959807 511.354294c0.026606-0.398066 0.040932-0.800225 0.040932-1.205455L954.000739 336.047616c0-12.533454-12.728906-21.629623-30.266327-21.629623l-97.837282-0.193405c9.668197-12.379958 17.057491-27.305903 20.106943-45.603641 6.990205-41.938158-3.303232-84.052325-27.533077-112.654756-20.819165-24.575722-49.795103-37.565571-83.798545-37.565571-39.405475 0-76.120678 18.990516-103.381555 53.472865-13.345959 16.881482-24.00881 36.995589-31.324426 58.487066-12.199856-5.885034-27.932166-9.707083-47.75463-11.606339-4.461615-0.426719-8.90788-0.64366-13.216-0.64366-20.589944 0-39.08211 4.894474-53.824883 14.172791-2.88163-6.066159-6.749728-13.273305-11.879562-21.933545-30.224372-51.018977-67.431785-86.957491-99.530854-96.133478-23.515576-6.722098-43.193755-7.04444-60.160171-0.984421-14.71412 5.256724-26.708292 15.071254-36.668131 30.004361-15.049764 22.566972-17.498536 63.005986-17.869996 72.458265-0.13917 0.774643-0.229221 1.563612-0.229221 2.375094 0 7.93574 6.92983 14.368242 15.477506 14.368242 8.547677 0 15.477506-6.432503 15.477506-14.368242 0-0.342808-0.029676-0.677429-0.055259-1.014096 0.572028-15.836687 4.439102-44.339858 12.740162-56.785308 9.556657-14.329357 24.493857-27.500331 62.848397-16.535605 18.228153 5.210675 50.525744 29.882588 81.556481 82.262562 11.514241 19.436678 14.230096 27.913746 14.824637 30.256094-3.584642 6.336312-5.915733 13.169951-6.845918 20.270672-1.964748 14.999622-1.288343 27.325345 2.052752 37.252439l-0.078795 0.078795c-0.277316 0.01228-0.552585 0.025583-0.849344 0.038886-13.983479 0.639566-51.123354 2.338255-69.953212-4.578272-21.87931-8.036024-57.001225-23.886013-85.221964-36.622082-18.532075-8.363482-33.169447-14.968923-40.801265-17.925255-28.960589-11.215436-63.586201-22.597671-108.134813-15.622816-78.982866 12.365632-82.433454 65.056692-82.541925 67.293639l0.052189 0.002047c-0.007163 0.180102-0.029676 0.356111-0.029676 0.537236 0 7.827269 6.854105 14.171768 15.308661 14.171768 8.111748 0 14.732539-5.845125 15.257495-13.231349l0.074701 0.004093c0.014326-0.298805 2.943029-30.043247 56.627718-38.44766 37.034475-5.796006 65.901942 3.698229 92.300172 13.921058 6.852058 2.653433 21.8701 9.43079 39.259142 17.278525 28.668946 12.938684 64.349587 29.04143 87.265506 37.4571 15.789615 5.799076 37.948287 7.128351 56.344263 7.127328 3.792373 0 7.424086-0.056282 10.80816-0.14224L523.374048 345.117179 523.374048 500.287237 154.279782 500.287237 154.279782 345.118202l180.549076 0-48.974411-22.943548-16.601096-7.755638-116.933199 0c-17.537422 0-30.266327 9.096169-30.266327 21.629623L122.053824 500.287237l0 0 0 32.284287 66.174142 0L188.227965 886.165772c0 15.561417 12.209066 28.220738 27.215852 28.220738l646.776589 0c15.006785 0 27.215852-12.659321 27.215852-28.220738L889.436258 532.570501l64.586994 0L953.959807 511.354294zM523.374048 883.688347L218.925105 883.688347 218.925105 532.570501 523.374048 532.570501 523.374048 883.688347zM734.671429 149.10083c24.695448 0 45.571918 9.236362 60.374042 26.709315 18.4717 21.805632 26.200732 54.614875 20.675902 87.765903-3.701299 22.207791-16.353456 37.685297-33.806967 50.562583l-152.373363-0.300852c3.89675-10.289344 4.78498-23.427572 2.791579-40.201607-0.936325-7.878434-3.303232-14.962783-7.05058-21.22644C639.636982 197.546192 679.661557 149.10083 734.671429 149.10083zM530.478863 313.26882c-3.728928 0.141216-7.309476 0.271176-10.761088 0.352017l-11.494799-0.022513c-10.815323-0.419556-17.083074-2.153036-19.99745-5.474688-3.672646-4.185322-4.713348-13.991666-2.929726-27.612894 2.064009-15.752776 21.171182-31.699979 53.699016-31.699979 3.334955 0 6.795776 0.169869 10.288321 0.50449 49.812499 4.7727 51.741431 21.0095 52.565193 27.944446 2.235924 18.802228-0.403183 26.246781-3.009544 29.181623-5.618974 6.327102-24.662703 6.327102-43.078121 6.327102l-5.013177-0.001023C543.767518 312.765353 537.012673 313.02118 530.478863 313.26882zM858.735026 883.688347L554.073234 883.688347 554.073234 532.570501l304.661791 0L858.735026 883.688347zM921.773757 500.287237L554.073234 500.287237 554.073234 345.118202l367.6995 0L921.772734 500.287237z" fill="#272636" p-id="18035"></path></svg>