<?xml version="1.0" standalone="no"?><!DOCTYPE svg PUBLIC "-//W3C//DTD SVG 1.1//EN" "http://www.w3.org/Graphics/SVG/1.1/DTD/svg11.dtd"><svg t="1533351229304" class="icon" style="" viewBox="0 0 1024 1024" version="1.1" xmlns="http://www.w3.org/2000/svg" p-id="6641" xmlns:xlink="http://www.w3.org/1999/xlink" width="32" height="32"><defs><style type="text/css"></style></defs><path d="M247.024413 463.181155c-56.924205 0-103.084509 46.134921-103.084509 103.020752l0 277.828232c0 56.949588 46.160503 103.077713 103.084509 103.077713l238.683373 0-157.742251-483.926698L247.024413 463.181155zM776.9847 463.181155l-80.852782 0L538.453624 947.108852l238.531076 0c56.918209 0 103.077713-46.128125 103.077713-103.077713L880.062414 566.202906C880.063613 509.316076 833.90311 463.181155 776.9847 463.181155zM802.433246 786.833719l-130.41338 0c-7.947012 0-14.411629-6.496995-14.411629-14.474386 0-7.914634 6.464417-14.405633 14.411629-14.405633l130.41338 0c7.971595 0 14.405633 6.49 14.405633 14.405633C816.838879 780.336924 810.405841 786.833719 802.433246 786.833719zM702.533778 267.352327c0-105.244045-85.241406-190.458869-190.484452-190.458869-105.148709 0-190.51583 85.215824-190.51583 190.458869 0 105.11733 85.36812 190.453073 190.51583 190.453073C617.293371 457.806199 702.533778 372.469458 702.533778 267.352327zM511.986369 488.287733l-93.124462 78.161806 93.124462 285.679909 93.187419-285.679909L511.986369 488.287733z" p-id="6642" fill="#3c8052"></path></svg>