<?xml version="1.0" standalone="no"?><!DOCTYPE svg PUBLIC "-//W3C//DTD SVG 1.1//EN" "http://www.w3.org/Graphics/SVG/1.1/DTD/svg11.dtd"><svg t="1533442253779" class="icon" style="" viewBox="0 0 1024 1024" version="1.1" xmlns="http://www.w3.org/2000/svg" p-id="20412" xmlns:xlink="http://www.w3.org/1999/xlink" width="32" height="32"><defs><style type="text/css"></style></defs><path d="M40.4 220.8l943.2 0c22.3 0 40.4-18.1 40.4-40.4 0-22.3-18.1-40.4-40.4-40.4L40.4 140C18.1 140 0 158.1 0 180.4 0 202.8 18.1 220.8 40.4 220.8zM983.6 490.3 40.4 490.3C18.1 490.3 0 508.4 0 530.7c0 22.3 18.1 40.4 40.4 40.4l943.2 0c22.3 0 40.4-18.1 40.4-40.4S1005.9 490.3 983.6 490.3zM983.6 840.6 40.4 840.6C18.1 840.6 0 858.7 0 881c0 22.3 18.1 40.4 40.4 40.4l943.2 0c22.3 0 40.4-18.1 40.4-40.4C1024 858.7 1005.9 840.6 983.6 840.6z" p-id="20413" fill="#fffafa"></path></svg>