<?xml version="1.0" standalone="no"?><!DOCTYPE svg PUBLIC "-//W3C//DTD SVG 1.1//EN" "http://www.w3.org/Graphics/SVG/1.1/DTD/svg11.dtd"><svg t="1533435590153" class="icon" style="" viewBox="0 0 1024 1024" version="1.1" xmlns="http://www.w3.org/2000/svg" p-id="4147" xmlns:xlink="http://www.w3.org/1999/xlink" width="32" height="32"><defs><style type="text/css"></style></defs><path d="M338.6559999999999 182.68000000000006C340 181.67200000000008 337.34400000000005 183.56000000000006 338.6559999999999 182.68000000000006L338.6559999999999 182.68000000000006 338.6559999999999 182.68000000000006zM338.6559999999999 182.68000000000006L338.6559999999999 182.68000000000006z" p-id="4148" fill="#ffffff"></path><path d="M861.752 511.9999999999999m-2.1316282072803006e-14-126.66399999999999a15.832999999999998 15.832999999999998 0 1 0 4.263256414560601e-14 253.32799999999997 15.832999999999998 15.832999999999998 0 1 0-4.263256414560601e-14-253.32799999999997Z" p-id="4149" fill="#ffffff"></path><path d="M515.368 512m-2.1316282072803006e-14-126.66399999999999a15.832999999999998 15.832999999999998 0 1 0 4.263256414560601e-14 253.32799999999997 15.832999999999998 15.832999999999998 0 1 0-4.263256414560601e-14-253.32799999999997Z" p-id="4150" fill="#ffffff"></path><path d="M168.98400000000004 512m-2.1316282072803006e-14-126.66399999999999a15.832999999999998 15.832999999999998 0 1 0 4.263256414560601e-14 253.32799999999997 15.832999999999998 15.832999999999998 0 1 0-4.263256414560601e-14-253.32799999999997Z" p-id="4151" fill="#ffffff"></path></svg>