<?xml version="1.0" standalone="no"?><!DOCTYPE svg PUBLIC "-//W3C//DTD SVG 1.1//EN" "http://www.w3.org/Graphics/SVG/1.1/DTD/svg11.dtd"><svg t="1533299170386" class="icon" style="" viewBox="0 0 1024 1024" version="1.1" xmlns="http://www.w3.org/2000/svg" p-id="4582" xmlns:xlink="http://www.w3.org/1999/xlink" width="32" height="32"><defs><style type="text/css"></style></defs><path d="M109.6704 624.3328a32 32 0 0 1-32-32V450.56a32 32 0 0 1 64 0v142.0288a32 32 0 0 1-32 31.744z m677.3248 331.6736H237.6704a160.2048 160.2048 0 0 1-160-160v-20.48a32 32 0 0 1 64 0v20.48a96.1536 96.1536 0 0 0 96 96h549.3248a96.1024 96.1024 0 0 0 96-96V604.16a32 32 0 0 1 64 0v191.6416a160.1536 160.1536 0 0 1-160 160.2048z m128-512.6656a32 32 0 0 1-32-32v-183.296a96.1024 96.1024 0 0 0-96-96H237.6704a96.1536 96.1536 0 0 0-96 96v15.36a32 32 0 1 1-64 0v-15.36a160.2048 160.2048 0 0 1 160-160h549.3248A160.1536 160.1536 0 0 1 947.2 228.0448v183.296a32 32 0 0 1-32.2048 32z" fill="#231815" p-id="4583"></path><path d="M913.4592 619.008a109.8752 109.8752 0 1 1 109.8752-109.8752 110.0288 110.0288 0 0 1-109.8752 109.8752z m0-168.4992a58.6752 58.6752 0 1 0 58.7776 58.5216A58.6752 58.6752 0 0 0 913.4592 450.56zM185.856 379.3408H34.816a32 32 0 1 1 0-64h150.9888a32 32 0 0 1 0 64z m525.5168 0H353.28a32 32 0 0 1 0-64h358.0416a32 32 0 0 1 0 64z m0 174.08H353.28a32 32 0 0 1 0-64h358.0416a32 32 0 0 1 0 64z m0 161.9968H353.28a32 32 0 0 1 0-64h358.0416a32 32 0 0 1 0 64z m-525.5168-5.12H34.816a32 32 0 0 1 0-64h150.9888a32 32 0 0 1 0 64z" fill="#231815" p-id="4584"></path></svg>