<?xml version="1.0" standalone="no"?><!DOCTYPE svg PUBLIC "-//W3C//DTD SVG 1.1//EN" "http://www.w3.org/Graphics/SVG/1.1/DTD/svg11.dtd"><svg t="1533378047622" class="icon" style="" viewBox="0 0 1024 1024" version="1.1" xmlns="http://www.w3.org/2000/svg" p-id="13134" xmlns:xlink="http://www.w3.org/1999/xlink" width="32" height="32"><defs><style type="text/css"></style></defs><path d="M512 221.504c-203.168 0-368 165.28-368 368.448l0 84.544 0 0L144 673.12C144 745.232 202.672 800 274.784 800L288 800 288 544l-13.216 0c-39.424 0-74.736 17.472-98.736 45.136C176.56 404.064 326.784 253.568 512 253.568c185.2 0 335.44 150.528 335.952 335.616C823.952 561.504 788.64 544 749.216 544L736 544l0 256 13.216 0C821.328 800 880 745.216 880 673.104l0 1.392 0-84.544C880 386.784 715.168 221.504 512 221.504zM256 577.024l0 194.944c-48-7.664-82.784-48.448-82.784-97.472C173.216 625.504 208 584.688 256 577.024zM768 771.968 768 577.024c48 7.664 82.784 48.432 82.784 97.472C850.784 723.504 816 764.32 768 771.968z" p-id="13135" fill="#ffffff"></path></svg>