<?xml version="1.0" standalone="no"?><!DOCTYPE svg PUBLIC "-//W3C//DTD SVG 1.1//EN" "http://www.w3.org/Graphics/SVG/1.1/DTD/svg11.dtd"><svg t="1533351556201" class="icon" style="" viewBox="0 0 1024 1024" version="1.1" xmlns="http://www.w3.org/2000/svg" p-id="11475" xmlns:xlink="http://www.w3.org/1999/xlink" width="32" height="32"><defs><style type="text/css"></style></defs><path d="M943.649486 257.613242c-20.810978-13.469779-176.684048 61.945841-176.684048 61.945841l0-7.890714c0-65.823148-53.688783-119.159914-119.918183-119.159914L185.011202 192.508455c-66.231447 0-119.92023 53.336766-119.92023 119.159914l0 400.659169c0 65.810868 53.688783 119.162983 119.92023 119.162983l462.037075 0c66.2294 0 119.918183-53.353139 119.918183-119.162983l0-9.784854c0 0 156.801209 74.7781 176.684048 61.946864C963.527209 751.665475 964.455347 271.069719 943.649486 257.613242zM319.662949 703.506638 319.662949 319.504848 623.790574 511.488347 319.662949 703.506638z" p-id="11476" fill="#3c8052"></path></svg>