<?xml version="1.0" standalone="no"?><!DOCTYPE svg PUBLIC "-//W3C//DTD SVG 1.1//EN" "http://www.w3.org/Graphics/SVG/1.1/DTD/svg11.dtd"><svg t="1533377978349" class="icon" style="" viewBox="0 0 1024 1024" version="1.1" xmlns="http://www.w3.org/2000/svg" p-id="12373" xmlns:xlink="http://www.w3.org/1999/xlink" width="32" height="32"><defs><style type="text/css"></style></defs><path d="M512 0a512 512 0 1 0 512 512A512 512 0 0 0 512 0z m0 967.296A455.3088 455.3088 0 1 1 967.296 512c0 251.072-213.376 453.12-455.3472 453.12v2.2272z m-93.5808-219.9424a18.432 18.432 0 0 1-18.2784-18.304V311.04a18.304 18.304 0 0 1 28.736-15.0016l292.5824 203.52a18.3424 18.3424 0 0 1 0.384 29.76L429.248 743.7312a18.2272 18.2272 0 0 1-10.8288 3.584z" p-id="12374" fill="#ffffff"></path></svg>