<?xml version="1.0" standalone="no"?><!DOCTYPE svg PUBLIC "-//W3C//DTD SVG 1.1//EN" "http://www.w3.org/Graphics/SVG/1.1/DTD/svg11.dtd"><svg t="1533442761074" class="icon" style="" viewBox="0 0 1122 1024" version="1.1" xmlns="http://www.w3.org/2000/svg" p-id="24042" xmlns:xlink="http://www.w3.org/1999/xlink" width="35.0625" height="32"><defs><style type="text/css"></style></defs><path d="M959.640537 0.008044H160.878548a160.878548 160.878548 0 0 0-160.878548 160.878548v532.910189a160.878548 160.878548 0 0 0 160.878548 160.878548h104.571056a29.360335 29.360335 0 1 0 0-58.72067H160.878548a103.766663 103.766663 0 0 1-103.766664-103.364467V160.886592A103.766663 103.766663 0 0 1 160.878548 58.728714h798.761989A103.766663 103.766663 0 0 1 1063.4072 160.886592v532.910189a103.766663 103.766663 0 0 1-103.766663 103.364467h-261.42764a29.360335 29.360335 0 0 0-22.522997 10.859302l-114.625965 140.366533-115.028162-140.366533A29.360335 29.360335 0 1 0 402.196369 844.620419l137.953355 168.118083a29.360335 29.360335 0 0 0 22.522997 10.859302 29.360335 29.360335 0 0 0 22.522996-10.859302l128.702838-157.258781h247.350767a160.878548 160.878548 0 0 0 160.878548-160.878547V160.886592a160.878548 160.878548 0 0 0-162.487333-160.878548z" p-id="24043" fill="#fffafa"></path><path d="M259.416658 427.140588m-72.395346 0a72.395346 72.395346 0 1 0 144.790693 0 72.395346 72.395346 0 1 0-144.790693 0Z" p-id="24044" fill="#fffafa"></path><path d="M559.052953 427.140588m-72.395346 0a72.395346 72.395346 0 1 0 144.790693 0 72.395346 72.395346 0 1 0-144.790693 0Z" p-id="24045" fill="#fffafa"></path><path d="M859.091445 427.140588m-72.395347 0a72.395346 72.395346 0 1 0 144.790693 0 72.395346 72.395346 0 1 0-144.790693 0Z" p-id="24046" fill="#fffafa"></path></svg>