<?xml version="1.0" standalone="no"?><!DOCTYPE svg PUBLIC "-//W3C//DTD SVG 1.1//EN" "http://www.w3.org/Graphics/SVG/1.1/DTD/svg11.dtd"><svg t="1533442709914" class="icon" style="" viewBox="0 0 1024 1024" version="1.1" xmlns="http://www.w3.org/2000/svg" p-id="22161" xmlns:xlink="http://www.w3.org/1999/xlink" width="32" height="32"><defs><style type="text/css"></style></defs><path d="M657.6 107.8h198.6c-60.5 39.8-121.1 91.8-181.4 155.7-74.8 79.3-132.7 159.7-170.9 218.3-6.7 10.2-3.7 23.9 6.7 30.4 10.1 6.4 23.4 3.5 30-6.5 54.5-83.1 196.2-280.2 374.3-382.8 0.7 2.1 1 4.3 1 6.6v149.8c0 12.1 9.8 21.9 21.9 21.9s21.9-9.8 21.9-21.9V85.9c0-12.1-9.8-21.9-21.9-21.9H657.6c-12.1 0-21.9 9.8-21.9 21.9 0 12.1 9.8 21.9 21.9 21.9z m280.5 464.9c-12.1 0-21.9 9.8-21.9 21.9V844c0 39.9-25.3 72.2-56.5 72.2H164.3c-31.1 0-56.5-32.4-56.5-72.2V301.5c0-39.9 25.3-72.2 56.5-72.2h325.9c12.1 0 21.9-9.8 21.9-21.9 0-12.1-9.8-21.9-21.9-21.9H164.3c-27.6 0-53.3 12.6-72.3 35.5-18 21.7-28 50.3-28 80.5V844c0 30.3 9.9 58.9 28 80.5 19.1 22.9 44.7 35.5 72.3 35.5h695.5c27.6 0 53.3-12.6 72.3-35.5 18-21.7 28-50.3 28-80.5V594.6c-0.1-12.1-9.9-21.9-22-21.9z" fill="#fffafa" p-id="22162"></path></svg>